<svg width="35" height="35" viewBox="0 0 35 35" fill="none" xmlns="http://www.w3.org/2000/svg">
<rect width="35" height="35" rx="17.5" fill="#1D2951"/>
<path d="M14.9815 15.8037C15.4976 15.8037 15.916 15.3853 15.916 14.8691C15.916 14.353 15.4976 13.9346 14.9815 13.9346C14.4653 13.9346 14.0469 14.353 14.0469 14.8691C14.0469 15.3853 14.4653 15.8037 14.9815 15.8037Z" fill="#F2F6F5"/>
<path d="M14.9815 20.0469C15.4976 20.0469 15.916 19.6285 15.916 19.1123C15.916 18.5962 15.4976 18.1777 14.9815 18.1777C14.4653 18.1777 14.0469 18.5962 14.0469 19.1123C14.0469 19.6285 14.4653 20.0469 14.9815 20.0469Z" fill="#F2F6F5"/>
<path d="M22.514 27H13.4299C12.0841 27 11 25.9159 11 24.5701V12.2336C11 10.8878 12.0841 9.80371 13.4299 9.80371H22.5327C23.8785 9.80371 24.9626 10.8878 24.9626 12.2336V24.5888C24.9439 25.9159 23.8598 27 22.514 27ZM13.4299 10.9252C12.7009 10.9252 12.1215 11.5046 12.1215 12.2336V24.5888C12.1215 25.3177 12.7009 25.8972 13.4299 25.8972H22.5327C23.2617 25.8972 23.8411 25.3177 23.8411 24.5888V12.2336C23.8411 11.5046 23.2617 10.9252 22.5327 10.9252H13.4299Z" fill="#F2F6F5"/>
<path d="M14.8881 12.6074C14.7386 12.6074 14.5891 12.5514 14.4956 12.4392C14.3835 12.3271 14.3274 12.1962 14.3274 12.0467V10.3645C14.3274 10.0467 14.5704 9.80371 14.8881 9.80371H21.0564C21.3741 9.80371 21.6171 10.0467 21.6171 10.3645V12.0467C21.6171 12.3645 21.3741 12.6074 21.0564 12.6074H14.8881ZM15.4489 10.9252V11.486H20.4956V10.9252H15.4489Z" fill="#F2F6F5"/>
<path d="M21.5236 15.4301H18.1591C17.8414 15.4301 17.5984 15.1871 17.5984 14.8693C17.5984 14.5516 17.8414 14.3086 18.1591 14.3086H21.5236C21.8414 14.3086 22.0844 14.5516 22.0844 14.8693C22.0844 15.1871 21.8414 15.4301 21.5236 15.4301Z" fill="#F2F6F5"/>
<path d="M21.5236 19.6352H18.1591C17.8414 19.6352 17.5984 19.3922 17.5984 19.0744C17.5984 18.7567 17.8414 18.5137 18.1591 18.5137H21.5236C21.8414 18.5137 22.0844 18.7567 22.0844 19.0744C22.0844 19.3922 21.8414 19.6352 21.5236 19.6352Z" fill="#F2F6F5"/>
<path d="M21.5236 23.8407H18.1591C17.8414 23.8407 17.5984 23.5977 17.5984 23.28C17.5984 22.9622 17.8414 22.7192 18.1591 22.7192H21.5236C21.8414 22.7192 22.0844 22.9622 22.0844 23.28C22.0844 23.5977 21.8414 23.8407 21.5236 23.8407Z" fill="#F2F6F5"/>
<path d="M14.9807 24.757C14.7938 24.757 14.6255 24.6823 14.5134 24.5327L13.4106 23.0561C13.2237 22.8131 13.2797 22.458 13.5227 22.2711C13.7657 22.0841 14.1209 22.1402 14.3078 22.3832L14.962 23.243L16.0087 21.6542C16.1769 21.3926 16.5321 21.3178 16.7938 21.5047C17.0554 21.6729 17.1302 22.0281 16.9433 22.2898L15.4667 24.5141C15.3732 24.6636 15.1863 24.757 14.9994 24.7757C14.9994 24.757 14.9807 24.757 14.9807 24.757Z" fill="#F2F6F5"/>
<path d="M17.9722 10.7383C16.9441 10.7383 16.103 9.8972 16.103 8.86916C16.103 7.84112 16.9441 7 17.9722 7C19.0002 7 19.8413 7.84112 19.8413 8.86916C19.8413 9.8972 19.0002 10.7383 17.9722 10.7383ZM17.9722 8.1215C17.561 8.1215 17.2245 8.45794 17.2245 8.86916C17.2245 9.28037 17.561 9.61682 17.9722 9.61682C18.3834 9.61682 18.7199 9.28037 18.7199 8.86916C18.7199 8.45794 18.3834 8.1215 17.9722 8.1215Z" fill="#F2F6F5"/>
</svg>
