<?xml version="1.0" encoding="utf-8"?><!-- Generator: Adobe Illustrator 21.1.0, SVG Export Plug-In . SVG Version: 6.00 Build 0)  --><svg xmlns="http://www.w3.org/2000/svg" xmlns:xlink="http://www.w3.org/1999/xlink" viewBox="0 0 128 128" width="128px" height="128px"><g><path d="M87,50c0-12.7-10.3-23-23-23S41,37.3,41,50s10.3,23,23,23S87,62.7,87,50z M47,50c0-9.4,7.6-17,17-17s17,7.6,17,17s-7.6,17-17,17S47,59.4,47,50z" fill="#fff"/><path d="M25.5,108.2c0.5,0.3,1,0.4,1.5,0.4c1,0,2.1-0.5,2.6-1.5C36.6,94.7,49.8,87,64,87c14.2,0,27.4,7.7,34.5,20.1c0.8,1.4,2.7,1.9,4.1,1.1c1.4-0.8,1.9-2.7,1.1-4.1C95.6,89.9,80.4,81,64,81c-16.4,0-31.6,8.9-39.7,23.1C23.5,105.5,24,107.4,25.5,108.2z" fill="#fff"/></g></svg>